<?xml version="1.0" encoding="utf-8"?>
<!-- Generator: Adobe Illustrator 19.2.1, SVG Export Plug-In . SVG Version: 6.00 Build 0)  -->
<svg version="1.1" id="layer" xmlns="http://www.w3.org/2000/svg" xmlns:xlink="http://www.w3.org/1999/xlink" x="0px" y="0px"
	 viewBox="0 0 652 652" style="enable-background:new 0 0 652 652;" xml:space="preserve">
<style type="text/css">
	.st0{fill:#231815;}
</style>
<g>
	<path class="st0" d="M268.8,219.1h21.9l16,151.4h-20.6l-1.3-27h-11.1l-1.9,27h-20.3L268.8,219.1z M280.1,244.1h-1.6
		c-0.5,21-1,34.4-1.3,40.4l-2.4,39.4h8.9l-1.7-30.4L280.1,244.1z"/>
	<path class="st0" d="M133.1,219.1h6.5c11.1,0,19.5,1.7,25.2,4.9c5.9,3.2,10.8,8.2,14.4,15.1c3.8,7.1,5.7,15,5.7,23.7
		c0,7.4-1.4,14.3-4.1,20.8c-2.7,6.5-6.7,11.8-12.1,15.9c-3.7,3.1-8.9,5.5-15.4,7.6v62.1h-20.3V219.1z M153.4,241.5v43.9
		c6.8-4.4,10.3-11.8,10.3-22.1c0-5.4-0.8-9.9-2.5-13.6C159.4,246.1,156.9,243.4,153.4,241.5"/>
	<path class="st0" d="M25.5,346.7c3.2,1.3,6,1.9,8.7,1.9c3.7,0,6.7-1.1,8.7-3.5c2.2-2.4,3.2-5.7,3.2-10.2c0-3.6-0.3-7.1-1.1-10.4
		c-1.6-6.6-4.6-15.1-8.7-25.6c-4.1-10.6-7.1-20-9.2-28.6c-1.1-4.9-1.6-10.2-1.6-16.2c0-12.8,2.5-22.2,7.6-28.1
		c4.9-6,11.6-8.8,19.7-8.8c3.8,0,8.1,0.8,13,2.2v20c-2.9-1.4-5.6-2-7.9-2c-3.5,0-6.3,1.4-8.9,4.3c-2.4,2.7-3.5,6.9-3.5,12.3
		c0,3.5,0.3,7.1,1.1,10.4c1.4,6.5,4.1,14.5,7.8,24.1c4.6,12,8.1,22.7,10.2,32.2c1.1,4.7,1.6,9.9,1.6,15.3c0,10.9-2.7,19.1-7.9,24.9
		c-5.2,5.8-11.9,8.7-19.8,8.7c-3.5,0-7.8-0.8-12.9-2.4V346.7z"/>
	<path class="st0" d="M416.5,365.2c-2.5,2.2-5.7,3.3-9.5,3.3c-10.5,0-18.7-6.8-24.9-20.4c-6.3-13.6-9.4-32.5-9.4-56.9
		c0-27.1,4.6-47.8,13.7-61.7c6-9,12.7-13.4,20.1-13.4c3.3,0,6.6,0.9,10,2.8v18.9c-2.1-1.1-4.1-1.6-6-1.6c-3.8,0-7,2.2-9.7,6.9
		c-4.6,8.1-6.8,23.2-6.8,45.4c0,23.3,1.4,38.9,4.6,46.5c3,7.7,7.1,11.5,12.2,11.5c1.9,0,3.8-0.5,5.7-1.7V365.2z"/>
</g>
<polygon class="st0" points="483.4,217.6 518.2,217.6 518.2,237.4 503.7,237.4 503.7,284.7 518.2,284.7 518.2,304.3 503.7,304.3 
	503.7,348 518.2,348 518.2,367.7 483.4,367.7 "/>
<path class="st0" d="M584.9,346.4c3.2,1.4,6,2,8.7,2c3.6,0,6.5-1.1,8.7-3.5c2.1-2.4,3.2-5.8,3.2-10.3c0-3.6-0.3-7.1-1.3-10.4
	c-1.6-6.6-4.4-15.1-8.6-25.6c-4.1-10.6-7.1-20-9.2-28.5c-1.1-4.9-1.6-10.3-1.6-16.3c0-12.9,2.5-22.2,7.5-28.1
	c5.1-6,11.7-8.8,19.8-8.8c3.6,0,8.1,0.6,12.8,2.2v19.9c-2.9-1.3-5.4-1.9-7.8-1.9c-3.5,0-6.3,1.4-8.9,4.1c-2.4,2.8-3.6,6.9-3.6,12.5
	c0,3.5,0.5,7.1,1.3,10.4c1.4,6.5,4,14.5,7.8,24.1c4.6,12,8.1,22.7,10.2,32.2c1.1,4.7,1.6,9.8,1.6,15.3c0,10.9-2.7,19.1-7.9,24.9
	c-5.2,5.8-11.9,8.7-19.8,8.7c-3.5,0-7.8-0.8-12.9-2.4V346.4z"/>
<path class="st0" d="M208.9,426.1h-2.4l1.1-2.6h1.4V410h2.9v13.3h6.2V410h3v26.7h-3v-10.7h-6.2v10.7h-2.9V426.1z M244.5,423.5
	c0,2.6-0.1,4.9-0.4,6.8c-0.2,1.9-0.9,3.5-1.9,4.9c-1,1.4-2.5,2.1-4.5,2.1c-1.6,0-2.8-0.4-3.7-1.2c-0.9-0.8-1.6-1.9-2.1-3.3
	c-0.4-1.3-0.7-2.8-0.8-4.3c-0.1-1.5-0.2-3.2-0.2-5c0-1.9,0.1-3.5,0.2-5c0.1-1.5,0.4-2.9,0.8-4.2c0.4-1.3,1.1-2.4,2.1-3.2
	c0.9-0.8,2.2-1.2,3.7-1.2c2,0,3.5,0.7,4.5,2c1,1.4,1.6,3,1.9,4.9C244.4,418.6,244.5,420.8,244.5,423.5 M237.7,412.4L237.7,412.4
	c-1.2,0-2.1,0.6-2.6,1.7c-0.5,1.1-0.9,2.4-1,3.9c-0.1,1.5-0.2,3.3-0.2,5.4c0,2.1,0.1,3.9,0.2,5.4c0.1,1.5,0.5,2.9,1.1,4
	c0.6,1.1,1.4,1.7,2.6,1.7c1.1,0,1.9-0.6,2.5-1.7c0.6-1.1,0.9-2.5,1.1-4.1c0.1-1.6,0.2-3.3,0.2-5.3c0-2.1-0.1-3.9-0.2-5.4
	c-0.1-1.5-0.5-2.9-1-4C239.7,413,238.9,412.4,237.7,412.4 M262.1,435.9l-2.8-18l-3.4,19.4l-2.8-0.5l4.9-25.2l2.5-2.2l1.9,14.6
	l2.1-12.5l2.6-2.2l4.2,27.4l-2.7,0.5l-2.7-19.4L262.1,435.9z M281.2,410.1h8.5l1.1,2.7h-6.6v10.6h6.3v2.7h-6.2v8h6.2v2.7h-9.2v-10.7
	h-2.4l1.1-2.6h1.3V410.1z M317.4,422.5l5.4,9.1l2.5-2.5l1.9,1.6l-3.1,3l1.8,3l-2.2,1.2l-1.4-2.6c-1.6,1.2-3.5,1.8-5.7,1.8
	c-2.2,0-4-0.7-5.2-2c-1.2-1.3-1.8-2.9-1.8-4.9c0-0.2,0-0.6,0.1-1c0.1-1.2,0.4-2.2,0.9-3.1c0.5-0.9,1-1.7,1.6-2.3
	c0.6-0.7,1.3-1.3,2.1-2c-0.7-1.2-1.2-2-1.5-2.5c-0.3-0.5-0.5-1-0.8-1.7c-0.2-0.7-0.4-1.4-0.4-2.3c0-1,0.2-1.9,0.7-2.8
	c0.5-0.9,1.2-1.6,2-2.1c0.9-0.5,1.8-0.8,2.9-0.8c1.9,0,3.4,0.5,4.4,1.5c1,1,1.5,2.3,1.5,3.9c0,0.8-0.2,1.6-0.6,2.3
	c-0.3,0.7-0.8,1.3-1.3,1.9c-0.5,0.5-1.1,1.1-1.7,1.6C318.8,421.3,318.1,421.9,317.4,422.5 M315.4,424c-0.7,0.5-1.2,1.2-1.7,1.8
	c-0.4,0.6-0.8,1.3-1,2c-0.2,0.7-0.4,1.5-0.6,2.4c0,1.3,0.4,2.4,1.2,3.3c0.8,0.9,1.9,1.4,3.3,1.4c1.6,0,3.1-0.5,4.4-1.5L315.4,424z
	 M314.1,415c0,0.9,0.2,1.7,0.5,2.5c0.3,0.8,0.9,1.7,1.6,2.8l1.1-0.8c2-1.5,2.9-3,2.9-4.7c0-0.6-0.1-1.1-0.4-1.5
	c-0.3-0.4-0.6-0.8-1.1-1c-0.5-0.2-1-0.4-1.6-0.4c-0.9,0-1.6,0.3-2.2,0.9C314.4,413.4,314.1,414.1,314.1,415 M348.5,423.5h0.7
	c1,0,1.8-0.1,2.4-0.4c0.5-0.3,1-0.8,1.2-1.6c0.3-0.8,0.4-1.9,0.4-3.4c0-2-0.3-3.4-0.9-4.1c-0.6-0.8-1.6-1.1-3-1.1h-0.8V423.5z
	 M348.5,434.2h1.4c1.2,0,2.1-0.1,2.6-0.2c0.5-0.1,1-0.4,1.5-1c0.5-0.6,0.7-1.6,0.7-2.9c0-1.2-0.2-2.1-0.6-2.7
	c-0.4-0.6-0.8-0.9-1.4-1.1c-0.5-0.1-1.2-0.2-2.1-0.2h-2.2V434.2z M350.2,436.8h-4.5v-26.7h3.9c1.4,0,2.4,0.1,3.1,0.4
	c0.6,0.3,1.3,0.7,1.9,1.4c1.1,1.2,1.6,2.9,1.6,5v2.5c0,1.3-0.1,2.4-0.4,3.2c-0.3,0.8-0.8,1.4-1.5,1.7c1.4,0.3,2.3,0.9,2.8,1.9
	c0.5,1,0.7,2.2,0.7,3.7v0.9c0,1.6-0.4,2.8-1.1,3.7c-0.8,0.9-1.7,1.6-2.8,1.9C352.6,436.7,351.4,436.8,350.2,436.8 M368.5,410.1h8.5
	l1.1,2.7h-6.6v10.6h6.2v2.7h-6.2v8h6.2v2.7h-9.2v-10.7h-2.4l1.1-2.6h1.3V410.1z M402.5,410.2L391,437.7l-2.7-1.2l4.2-10.1l-5.7-16.2
	l2.9-0.9l4.6,12.9l5.2-12.9L402.5,410.2z M423.6,423.5c0,2.6-0.1,4.9-0.4,6.8c-0.2,1.9-0.9,3.5-1.9,4.9c-1,1.4-2.5,2.1-4.5,2.1
	c-1.6,0-2.8-0.4-3.7-1.2c-0.9-0.8-1.6-1.9-2.1-3.3c-0.4-1.3-0.7-2.8-0.8-4.3c-0.1-1.5-0.2-3.2-0.2-5c0-1.9,0.1-3.5,0.2-5
	c0.1-1.5,0.4-2.9,0.8-4.2c0.4-1.3,1.1-2.4,2.1-3.2c0.9-0.8,2.2-1.2,3.7-1.2c2,0,3.5,0.7,4.5,2c1,1.4,1.6,3,1.9,4.9
	C423.4,418.6,423.6,420.8,423.6,423.5 M416.8,412.4L416.8,412.4c-1.2,0-2.1,0.6-2.7,1.7c-0.5,1.1-0.9,2.4-1,3.9
	c-0.1,1.5-0.2,3.3-0.2,5.4c0,2.1,0.1,3.9,0.2,5.4c0.1,1.5,0.5,2.9,1.1,4c0.6,1.1,1.4,1.7,2.6,1.7c1.1,0,1.9-0.6,2.5-1.7
	c0.6-1.1,0.9-2.5,1.1-4.1c0.2-1.6,0.2-3.3,0.2-5.3c0-2.1-0.1-3.9-0.2-5.4c-0.1-1.5-0.5-2.9-1-4C418.8,413,417.9,412.4,416.8,412.4
	 M444.1,437.6l-7.8-20.1v19.1h-3v-25.2l2.5-2.2l7.5,19.6v-18.7l2.9,0v26.6L444.1,437.6z M456.1,410.1h5.5c1.5,0,2.7,0.4,3.7,1.2
	c0.9,0.8,1.6,1.9,2.1,3.2c0.4,1.3,0.7,2.7,0.8,4.1c0.1,1.4,0.2,3.1,0.2,4.9c0,1.8-0.1,3.5-0.2,4.9c-0.1,1.4-0.4,2.8-0.9,4
	c-0.5,1.3-1.1,2.3-2.1,3.1c-0.9,0.8-2.2,1.2-3.7,1.2h-5.4V410.1z M459.1,434.1h2.2c1.2,0,2-0.4,2.7-1.2c0.6-0.8,1-1.7,1.1-2.9
	c0.2-1.2,0.3-2.5,0.3-4.2v-5.5c0-1.5-0.1-2.8-0.3-3.9c-0.2-1.1-0.6-1.9-1.1-2.6c-0.6-0.7-1.4-1-2.6-1h-2.3V434.1z"/>
<path class="st0" d="M473.1,394.9L473.1,394.9c1.7,0,3.2,0.7,4.3,1.8c1.1,1.1,1.8,2.6,1.8,4.3v0c0,1.7-0.7,3.2-1.8,4.3
	c-1.1,1.1-2.6,1.8-4.3,1.8h0h0c-1.7,0-3.2-0.7-4.3-1.8c-1.1-1.1-1.8-2.6-1.8-4.3v0c0-1.7,0.7-3.2,1.8-4.3S471.4,394.9,473.1,394.9
	L473.1,394.9z M473.1,395.7L473.1,395.7L473.1,395.7L473.1,395.7c-1.5,0-2.8,0.6-3.8,1.6c-1,1-1.6,2.3-1.6,3.8v0
	c0,1.5,0.6,2.8,1.6,3.7c1,1,2.3,1.5,3.8,1.6v0h0h0v0c1.5,0,2.8-0.6,3.7-1.6c1-1,1.6-2.3,1.6-3.8v0c0-1.5-0.6-2.8-1.6-3.7
	C475.9,396.3,474.6,395.7,473.1,395.7"/>
<path class="st0" d="M476,399.1c-0.4-0.5-0.8-0.9-1.2-1.1c-0.4-0.2-0.9-0.4-1.5-0.4c-0.9,0-1.7,0.3-2.3,1c-0.6,0.7-0.9,1.5-0.9,2.4
	c0,1,0.3,1.8,0.9,2.5c0.6,0.7,1.4,1,2.3,1c0.6,0,1.1-0.1,1.5-0.4c0.5-0.2,0.8-0.6,1.2-1h0.9c-0.4,0.7-0.9,1.2-1.5,1.6
	c-0.6,0.4-1.3,0.6-2.1,0.6c-1.2,0-2.2-0.4-2.9-1.2c-0.8-0.8-1.2-1.8-1.2-3c0-0.6,0.1-1.1,0.3-1.6c0.2-0.5,0.5-1,0.9-1.4
	c0.4-0.4,0.8-0.7,1.3-0.9c0.5-0.2,1-0.3,1.6-0.3c0.8,0,1.5,0.2,2.2,0.6c0.6,0.4,1.1,0.9,1.5,1.7H476z"/>
</svg>
