<?xml version="1.0" encoding="utf-8"?>
<!-- Uploaded to: SVG Repo, www.svgrepo.com, Generator: SVG Repo Mixer Tools -->
<svg width="800px" height="800px" viewBox="0 0 1024 1024" class="icon"  version="1.1" xmlns="http://www.w3.org/2000/svg"><path d="M66.716 389.632l487.088-240.42L793.25 634.325l-487.087 240.42z" fill="#DBDBDB" /><path d="M128.97 407.991l404.86-199.834 164.514 333.304-404.86 199.833z" fill="#25A0C8" /><path d="M128.97 407.991l404.86-199.834 164.514 333.304-404.86 199.833z" fill="#F35426" /><path d="M237.1 435.2m-47.5 0a47.5 47.5 0 1 0 95 0 47.5 47.5 0 1 0-95 0Z" fill="#EDC545" /><path d="M374.9 369.1l30.9-15.3c2.3-1.1 3.2-3.9 2.1-6.2l-0.7-1.4c-1.1-2.3-3.9-3.2-6.2-2.1l-30.9 15.3c-2.3 1.1-3.2 3.9-2.1 6.2l0.7 1.4c1.2 2.2 3.9 3.2 6.2 2.1zM373.4 393.1l30.9-15.3c2.3-1.1 3.2-3.9 2.1-6.2l-0.7-1.4c-1.1-2.3-3.9-3.2-6.2-2.1l-30.9 15.3c-2.3 1.1-3.2 3.9-2.1 6.2l0.7 1.4c1.1 2.3 3.9 3.2 6.2 2.1zM393.2 343.7l-1.4 0.7c-2.3 1.1-5.1 0.2-6.2-2.1l-0.7-1.4c-1.1-2.3-0.2-5.1 2.1-6.2l1.4-0.7c2.3-1.1 5.1-0.2 6.2 2.1l0.7 1.4c1.2 2.3 0.2 5.1-2.1 6.2zM421.7 370.4l-5 2.5c-2.3 1.1-5.1 0.2-6.2-2.1l-0.7-1.4c-1.1-2.3-0.2-5.1 2.1-6.2l5-2.5c2.3-1.1 5.1-0.2 6.2 2.1l0.7 1.4c1.1 2.3 0.2 5.1-2.1 6.2zM322.2 389.1l-5 2.5c-2.3 1.1-5.1 0.2-6.2-2.1l-0.7-1.4c-1.1-2.3-0.2-5.1 2.1-6.2l5-2.5c2.3-1.1 5.1-0.2 6.2 2.1l0.7 1.4c1.2 2.3 0.2 5.1-2.1 6.2z" fill="#E0EDF0" /><path d="M535.3 422.3l30.9-15.3c2.3-1.1 3.2-3.9 2.1-6.2l-0.7-1.4c-1.1-2.3-3.9-3.2-6.2-2.1l-30.9 15.3c-2.3 1.1-3.2 3.9-2.1 6.2l0.7 1.4c1.1 2.3 3.9 3.3 6.2 2.1zM533.7 446.4l30.9-15.3c2.3-1.1 3.2-3.9 2.1-6.2l-0.7-1.4c-1.1-2.3-3.9-3.2-6.2-2.1L529 436.7c-2.3 1.1-3.2 3.9-2.1 6.2l0.7 1.4c1.1 2.2 3.8 3.2 6.1 2.1zM553.6 397l-1.4 0.7c-2.3 1.1-5.1 0.2-6.2-2.1l-0.7-1.4c-1.1-2.3-0.2-5.1 2.1-6.2l1.4-0.7c2.3-1.1 5.1-0.2 6.2 2.1l0.7 1.4c1.1 2.3 0.2 5.1-2.1 6.2zM582.1 423.7l-5 2.5c-2.3 1.1-5.1 0.2-6.2-2.1l-0.7-1.4c-1.1-2.3-0.2-5.1 2.1-6.2l5-2.5c2.3-1.1 5.1-0.2 6.2 2.1l0.7 1.4c1.1 2.3 0.1 5.1-2.1 6.2zM482.6 442.4l-5 2.5c-2.3 1.1-5.1 0.2-6.2-2.1l-0.7-1.4c-1.1-2.3-0.2-5.1 2.1-6.2l5-2.5c2.3-1.1 5.1-0.2 6.2 2.1l0.7 1.4c1.1 2.2 0.2 5-2.1 6.2z" fill="#E0EDF0" /><path d="M365.3 705.8l331.3-163.6-14.9-30.2-239.4-94.4z" fill="#108C37" /><path d="M488.2 645.1l210.1-103.7-47.4-96-98.9-39z" fill="#1F9845" /><path d="M254.4 516.5l-25.2 94.6 64.2 130.2 235.9-116.5z" fill="#2DA150" /><path d="M414.1 325.4h543.2v541H414.1z" fill="#EAEAEA" /><path d="M461.8 369.4h451.5v371.7H461.8z" fill="#25A0C8" /><path d="M461.8 369.4h451.5v371.7H461.8z" fill="#25A0C8" /><path d="M546.8 441.7m-47.5 0a47.5 47.5 0 1 0 95 0 47.5 47.5 0 1 0-95 0Z" fill="#EDC545" /><path d="M699.6 443.4h34.5c2.5 0 4.6-2.1 4.6-4.6v-1.5c0-2.5-2.1-4.6-4.6-4.6h-34.5c-2.5 0-4.6 2.1-4.6 4.6v1.5c0 2.5 2.1 4.6 4.6 4.6zM687.6 464.3h34.5c2.5 0 4.6-2.1 4.6-4.6v-1.5c0-2.5-2.1-4.6-4.6-4.6h-34.5c-2.5 0-4.6 2.1-4.6 4.6v1.5c0 2.5 2.1 4.6 4.6 4.6zM727.3 428.8h-1.5c-2.5 0-4.6-2.1-4.6-4.6v-1.5c0-2.5 2.1-4.6 4.6-4.6h1.5c2.5 0 4.6 2.1 4.6 4.6v1.5c0 2.5-2.1 4.6-4.6 4.6zM741 465.4h-5.6c-2.5 0-4.6-2.1-4.6-4.6v-1.5c0-2.5 2.1-4.6 4.6-4.6h5.6c2.5 0 4.6 2.1 4.6 4.6v1.5c0 2.5-2.1 4.6-4.6 4.6zM643.5 438h-5.6c-2.5 0-4.6-2.1-4.6-4.6v-1.5c0-2.5 2.1-4.6 4.6-4.6h5.6c2.5 0 4.6 2.1 4.6 4.6v1.5c0.1 2.6-2 4.6-4.6 4.6z" fill="#E0EDF0" /><path d="M819.8 562.1h34.5c2.5 0 4.6-2.1 4.6-4.6V556c0-2.5-2.1-4.6-4.6-4.6h-34.5c-2.5 0-4.6 2.1-4.6 4.6v1.5c0 2.6 2.1 4.6 4.6 4.6zM807.8 583h34.5c2.5 0 4.6-2.1 4.6-4.6v-1.5c0-2.5-2.1-4.6-4.6-4.6h-34.5c-2.5 0-4.6 2.1-4.6 4.6v1.5c0 2.5 2.1 4.6 4.6 4.6zM847.5 547.5H846c-2.5 0-4.6-2.1-4.6-4.6v-1.5c0-2.5 2.1-4.6 4.6-4.6h1.5c2.5 0 4.6 2.1 4.6 4.6v1.5c0 2.6-2.1 4.6-4.6 4.6zM861.2 584.1h-5.6c-2.5 0-4.6-2.1-4.6-4.6V578c0-2.5 2.1-4.6 4.6-4.6h5.6c2.5 0 4.6 2.1 4.6 4.6v1.5c0 2.5-2.1 4.6-4.6 4.6zM763.7 556.8h-5.6c-2.5 0-4.6-2.1-4.6-4.6v-1.5c0-2.5 2.1-4.6 4.6-4.6h5.6c2.5 0 4.6 2.1 4.6 4.6v1.5c0.1 2.5-2 4.6-4.6 4.6z" fill="#E0EDF0" /><path d="M541.9 741.1h369.6v-33.7l-173-190.7z" fill="#108C37" /><path d="M679 741.1h234.3V634l-71.4-78.7z" fill="#1F9845" /><path d="M526.3 522.2l-64.5 73.7v145.2h263.1z" fill="#2DA150" /></svg>